<svg width="27" height="27" viewBox="0 0 17 17" fill="none" xmlns="http://www.w3.org/2000/svg">
<path d="M1 4.01563H16M7 7.76562V11.5156M10 7.76562V11.5156M2.5 4.01563H14.5L13.315 14.6806C13.2744 15.0477 13.0998 15.3868 12.8247 15.6331C12.5496 15.8795 12.1933 16.0157 11.824 16.0156H5.176C4.80673 16.0157 4.45042 15.8795 4.17531 15.6331C3.9002 15.3868 3.72562 15.0477 3.685 14.6806L2.5 4.01563ZM5.00875 1.87588C5.13006 1.6186 5.32203 1.40112 5.56225 1.24881C5.80248 1.09649 6.08106 1.01562 6.3655 1.01563H10.6345C10.9191 1.01548 11.1978 1.09628 11.4382 1.24861C11.6785 1.40093 11.8706 1.61849 11.992 1.87588L13 4.01563H4L5.00875 1.87588V1.87588Z" stroke="#EB5647" stroke-width="1.5" stroke-linecap="round" stroke-linejoin="round"/>
</svg>
