<svg width="92" height="88" viewBox="0 0 92 88" fill="none" xmlns="http://www.w3.org/2000/svg">
<path d="M34.6341 60.7248L34.1586 60.9946L34.6341 61.2943L45.9576 67.8883L46.1062 67.9782L46.2549 67.8883L82.0384 47.0572C82.2465 46.9373 82.4545 46.9074 82.6923 46.9074C82.9301 46.9074 83.1381 46.9673 83.3461 47.0572C83.7622 47.327 84 47.7766 84 48.2561V65.3106C84 65.7902 83.7325 66.2398 83.3164 66.4796L46.7007 87.8202C46.4926 87.9401 46.2846 88 46.0171 88C45.7496 88 45.5416 87.9401 45.3335 87.8202L8.71775 66.4796C8.30166 66.2398 8.03418 65.7902 8.03418 65.3106V22.6594C8.03418 22.1798 8.30166 21.7302 8.71775 21.4905L45.3335 0.179836C45.5416 0.0599453 45.7496 0 45.9874 0C46.2251 0 46.4332 0.0599447 46.6115 0.149863L61.2935 8.6921C61.7096 8.93188 61.9473 9.38147 61.9473 9.86104C61.9473 10.3406 61.6798 10.7902 61.2637 11.03L25.4504 31.861L25.3018 31.951V45.8883L25.7774 45.5886L74.5786 17.1744C74.7866 17.0545 74.9947 16.9946 75.2324 16.9946C75.4702 16.9946 75.6782 17.0545 75.8863 17.1744L83.1975 21.4605C83.6136 21.7003 83.8514 22.1499 83.8514 22.6294V31.1717C83.8514 31.6512 83.5839 32.1008 83.1678 32.3406L34.3963 60.7548L34.6341 60.7248ZM53.4472 6.74387L17.842 27.485V50.6839L23.1025 47.6267V31.1417C23.1025 30.782 23.3106 30.4223 23.6078 30.2425L58.7078 9.83106L53.4472 6.77384V6.74387ZM46.6412 70.436C46.4629 70.5259 46.3143 70.5858 46.136 70.5858C45.9576 70.5858 45.7793 70.5259 45.6307 70.4659L31.4837 62.2234L26.2232 65.2807L46.136 76.8801L81.7412 56.139V50.0245L46.6709 70.436H46.6412ZM81.7115 24.3978L11.5412 65.2807L46.1062 85.4223L81.7115 64.6812V58.5668L46.6412 78.9782C46.4926 79.0681 46.3143 79.0981 46.136 79.0981C45.9576 79.0981 45.7496 79.0381 45.601 78.9482L23.6375 66.1499C23.3106 65.97 23.1322 65.6104 23.1322 65.2507C23.1322 64.891 23.3403 64.5313 23.6375 64.3515L30.9785 60.0954L81.7412 30.5422V24.4278L81.7115 24.3978ZM75.4107 19.5123L24.6183 49.0954L17.307 53.3515C17.307 53.3515 16.9801 53.5014 16.8018 53.5014C16.6234 53.5014 16.4451 53.4414 16.2668 53.3515C15.9696 53.1717 15.7615 52.812 15.7615 52.4523V26.8556C15.7615 26.4959 15.9696 26.1362 16.2668 25.9564L51.3371 5.54496L46.0765 2.48774L10.4713 23.1989V63.4523L80.6416 22.5995L75.381 19.5422L75.4107 19.5123Z" fill="#E40521"/>
</svg>
