<svg width="40" height="40" viewBox="0 0 40 40" fill="none" xmlns="http://www.w3.org/2000/svg">
<rect width="40" height="40" rx="20" fill="#E40521"/>
<path d="M20 10.85C21.74 10.85 23.15 12.26 23.15 14C23.15 15.74 21.74 17.15 20 17.15C18.26 17.15 16.85 15.74 16.85 14C16.85 12.26 18.26 10.85 20 10.85ZM20 24.35C24.455 24.35 29.15 26.54 29.15 27.5V29.15H10.85V27.5C10.85 26.54 15.545 24.35 20 24.35ZM20 8C16.685 8 14 10.685 14 14C14 17.315 16.685 20 20 20C23.315 20 26 17.315 26 14C26 10.685 23.315 8 20 8ZM20 21.5C15.995 21.5 8 23.51 8 27.5V32H32V27.5C32 23.51 24.005 21.5 20 21.5Z" fill="white"/>
</svg>
