<svg width="34" height="32" viewBox="0 0 34 32" fill="none" xmlns="http://www.w3.org/2000/svg">
<path fill-rule="evenodd" clip-rule="evenodd" d="M22.372 31.6666H22.6884H22.9716C27.3848 30.0321 30.8654 26.5668 32.5475 22.219C33.3396 20.2172 33.7182 18.0808 33.661 15.934C33.6038 13.7873 33.1121 11.6732 32.2144 9.71478C30.4158 5.7592 27.1017 2.66993 22.9882 1.10077C14.4115 -2.15196 4.76901 2.0488 1.45492 10.4667C-1.85918 18.8845 2.42083 28.3485 10.9975 31.6012C11.1807 31.6666 11.3972 31.6666 11.597 31.6012C11.7969 31.5195 11.9468 31.356 12.0134 31.1599L15.8104 21.6796C15.9603 21.2709 15.7438 20.8296 15.3441 20.6825C14.0951 20.2248 13.1125 19.2932 12.6129 18.0836C12.1633 16.9558 12.1966 15.6645 12.6962 14.504C13.762 12.1993 16.5432 11.1532 18.9247 12.1993C21.3062 13.2454 22.372 15.975 21.3062 18.3124C20.8066 19.4076 19.8573 20.3229 18.6749 20.7479C18.2919 20.9113 18.092 21.3527 18.2419 21.745L21.939 31.2253C21.9756 31.3245 22.033 31.4151 22.1076 31.4912C22.1822 31.5672 22.2723 31.627 22.372 31.6666Z" fill="#E40521"/>
</svg>
